<svg xmlns="http://www.w3.org/2000/svg" viewBox="0 0 105.65 145.15">
  <defs>
    <style>.cls-1{fill:#2a9537;stroke:#fff;stroke-miterlimit:10;stroke-width:0.25px;}.cls-2{fill:#0006df;}</style>
  </defs>
  <title>Asset 2</title>
  <g id="Layer_2" data-name="Layer 2">
    <g id="Layer_1-2" data-name="Layer 1">
      <path id="MG" class="cls-1" d="M97.79,1.81c31-10.56-37.6,212.72-91.92,121.09-21-25.42,23.82-23.76,5.58-62.53-3-10.82,16.06-26.78,38.09-21.85-6.3,0,7.64-11.52,9.2-4.71,0,1.76,7.7-14.16,6.31-4.86,3,1.47,1.89-5.44,8.36-3.42C64.88,29.8,91.54-8.27,98.07,1.84ZM79.1,11.59V12c.56-.58-2.34,1.29-2.4-1.47a13.34,13.34,0,0,0,1.85-.66A1.77,1.77,0,0,1,79.1,11.59Zm24.71,37.63-1.73,2c.73-.22-1.56-.67,3.07-4.2Z"/>
      <rect class="cls-2" x="83.92" y="41.82" width="13.93" height="13.93"/>
    </g>
  </g>
</svg>
