<svg xmlns="http://www.w3.org/2000/svg" viewBox="0 0 1260.34 898.13">
  <defs>
    <style>
      .cls-10{stroke:#c6fbff;stroke-width:0.75px;}
    </style>
  </defs>
  <title>snowflake</title>


  <line class="cls-10" x1="1238.93" y1="1.56" x2="1238.93" y2="11.06"/>
  <line class="cls-10" x1="1238.93" y1="11.06" x2="1245.63" y2="4.36"/>
  <line class="cls-10" x1="1229.43" y1="11.06" x2="1248.33" y2="11.06"/>
  <line class="cls-10" x1="1232.13" y1="4.36" x2="1238.93" y2="11.06"/>
  <line class="cls-10" x1="1237.03" y1="6.96" x2="1238.83" y2="8.76"/>
  <line class="cls-10" x1="1238.83" y1="8.76" x2="1240.63" y2="6.96"/>
  <line class="cls-10" x1="1238.93" y1="5.66" x2="1241.13" y2="3.46"/>
  <line class="cls-10" x1="1236.63" y1="3.46" x2="1238.83" y2="5.66"/>
  <line class="cls-10" x1="1231.53" y1="7.06" x2="1234.73" y2="7.06"/>
  <line class="cls-10" x1="1242.93" y1="7.06" x2="1246.13" y2="7.06"/>
  <line class="cls-10" x1="1234.73" y1="7.06" x2="1234.73" y2="3.86"/>
  <line class="cls-10" x1="1242.93" y1="7.06" x2="1242.93" y2="3.86"/>
  <line class="cls-10" x1="1234.63" y1="9.26" x2="1236.43" y2="11.06"/>
  <line class="cls-10" x1="1241.23" y1="11.06" x2="1243.03" y2="9.26"/>
  <line class="cls-10" x1="1244.33" y1="11.06" x2="1246.63" y2="8.86"/>
  <line class="cls-10" x1="1231.23" y1="8.86" x2="1233.43" y2="11.06"/>
  <line class="cls-10" x1="1238.93" y1="20.66" x2="1238.93" y2="11.16"/>
  <line class="cls-10" x1="1238.93" y1="11.16" x2="1245.63" y2="17.86"/>
  <line class="cls-10" x1="1229.43" y1="11.16" x2="1248.33" y2="11.06"/>
  <line class="cls-10" x1="1232.13" y1="17.86" x2="1238.93" y2="11.16"/>
  <line class="cls-10" x1="1237.03" y1="15.26" x2="1238.83" y2="13.46"/>
  <line class="cls-10" x1="1238.83" y1="13.46" x2="1240.63" y2="15.26"/>
  <line class="cls-10" x1="1238.93" y1="16.56" x2="1241.13" y2="18.76"/>
  <line class="cls-10" x1="1236.63" y1="18.76" x2="1238.83" y2="16.56"/>
  <line class="cls-10" x1="1231.53" y1="15.16" x2="1234.73" y2="15.16"/>
  <line class="cls-10" x1="1242.93" y1="15.16" x2="1246.13" y2="15.16"/>
  <line class="cls-10" x1="1234.73" y1="15.16" x2="1234.73" y2="18.36"/>
  <line class="cls-10" x1="1242.93" y1="15.16" x2="1242.93" y2="18.36"/>
  <line class="cls-10" x1="1234.63" y1="12.96" x2="1236.43" y2="11.16"/>
  <line class="cls-10" x1="1241.23" y1="11.16" x2="1243.03" y2="12.96"/>
  <line class="cls-10" x1="1244.33" y1="11.06" x2="1246.63" y2="13.36"/>
  <line class="cls-10" x1="1231.23" y1="13.36" x2="1233.43" y2="11.06"/>


</svg>
