<svg xmlns="http://www.w3.org/2000/svg" viewBox="0 0 20.71 20.75"><defs><style>.cls-1{fill:none;stroke:#c6fbff;stroke-miterlimit:10;stroke-width:0.75px;}</style></defs><title>Asset 1</title><g id="Layer_2" data-name="Layer 2"><g id="Snowflakes"><line class="cls-1" x1="10.36" x2="10.36" y2="10.34"/><line class="cls-1" x1="10.36" y1="10.34" x2="17.66" y2="3.03"/><line class="cls-1" y1="10.3" x2="20.71" y2="10.37"/><line class="cls-1" x1="3.02" y1="3.03" x2="10.36" y2="10.34"/><line class="cls-1" x1="8.29" y1="5.81" x2="10.27" y2="7.79"/><line class="cls-1" x1="10.34" y1="7.79" x2="12.31" y2="5.81"/><line class="cls-1" x1="10.38" y1="4.45" x2="12.85" y2="1.98"/><line class="cls-1" x1="7.88" y1="1.99" x2="10.34" y2="4.45"/><line class="cls-1" x1="2.38" y1="5.91" x2="5.85" y2="5.91"/><line class="cls-1" x1="14.78" y1="5.91" x2="18.25" y2="5.91"/><line class="cls-1" x1="5.85" y1="5.91" x2="5.85" y2="2.44"/><line class="cls-1" x1="14.78" y1="5.91" x2="14.78" y2="2.44"/><line class="cls-1" x1="5.72" y1="8.38" x2="7.7" y2="10.36"/><line class="cls-1" x1="12.9" y1="10.36" x2="14.88" y2="8.38"/><line class="cls-1" x1="16.3" y1="10.37" x2="18.77" y2="7.91"/><line class="cls-1" x1="1.96" y1="7.92" x2="4.41" y2="10.37"/><line class="cls-1" x1="10.36" y1="20.75" x2="10.36" y2="10.41"/><line class="cls-1" x1="10.36" y1="10.41" x2="17.66" y2="17.71"/><line class="cls-1" y1="10.45" x2="20.71" y2="10.37"/><line class="cls-1" x1="3.02" y1="17.71" x2="10.36" y2="10.41"/><line class="cls-1" x1="8.29" y1="14.93" x2="10.27" y2="12.96"/><line class="cls-1" x1="10.34" y1="12.96" x2="12.31" y2="14.93"/><line class="cls-1" x1="10.38" y1="16.3" x2="12.85" y2="18.76"/><line class="cls-1" x1="7.88" y1="18.75" x2="10.34" y2="16.3"/><line class="cls-1" x1="2.38" y1="14.83" x2="5.85" y2="14.83"/><line class="cls-1" x1="14.78" y1="14.83" x2="18.25" y2="14.83"/><line class="cls-1" x1="5.85" y1="14.83" x2="5.85" y2="18.31"/><line class="cls-1" x1="14.78" y1="14.83" x2="14.78" y2="18.31"/><line class="cls-1" x1="5.72" y1="12.37" x2="7.7" y2="10.39"/><line class="cls-1" x1="12.9" y1="10.39" x2="14.88" y2="12.37"/><line class="cls-1" x1="16.3" y1="10.37" x2="18.77" y2="12.84"/><line class="cls-1" x1="1.96" y1="12.83" x2="4.41" y2="10.37"/></g></g></svg>